<svg xmlns="http://www.w3.org/2000/svg" viewBox="0 0 32 32" width="32" height="32" shape-rendering="crispEdges">
  <rect width="32" height="32" rx="4" fill="#1e293b"/>
  <rect x="2" y="2" width="28" height="28" rx="3" fill="#581c87"/>
  <!-- clustered mini-archer silhouettes (pink Clash-era palette vs skarmy greys) -->
  <rect x="3" y="18" width="5" height="2" fill="#fbcfe8"/>
  <rect x="4" y="19" width="1" height="1" fill="#0f172a"/>
  <rect x="6" y="19" width="1" height="1" fill="#0f172a"/>
  <rect x="2" y="20" width="6" height="2" fill="#f472b6"/>
  <rect x="2" y="22" width="1" height="3" fill="#9d174d"/>
  <rect x="7" y="22" width="1" height="3" fill="#9d174d"/>
  <rect x="4" y="23" width="2" height="3" fill="#9d174d"/>
  <rect x="8" y="17" width="1" height="4" fill="#f9a8d4"/>
  <rect x="11" y="16" width="5" height="2" fill="#fbcfe8"/>
  <rect x="12" y="17" width="1" height="1" fill="#0f172a"/>
  <rect x="14" y="17" width="1" height="1" fill="#0f172a"/>
  <rect x="10" y="18" width="6" height="2" fill="#f472b6"/>
  <rect x="10" y="20" width="1" height="3" fill="#9d174d"/>
  <rect x="15" y="20" width="1" height="3" fill="#9d174d"/>
  <rect x="12" y="21" width="2" height="3" fill="#db2777"/>
  <rect x="16" y="15" width="1" height="5" fill="#f9a8d4"/>
  <rect x="19" y="14" width="5" height="2" fill="#fbcfe8"/>
  <rect x="20" y="15" width="1" height="1" fill="#0f172a"/>
  <rect x="22" y="15" width="1" height="1" fill="#0f172a"/>
  <rect x="18" y="16" width="6" height="2" fill="#f472b6"/>
  <rect x="18" y="18" width="1" height="3" fill="#9d174d"/>
  <rect x="23" y="18" width="1" height="3" fill="#9d174d"/>
  <rect x="20" y="19" width="2" height="3" fill="#9d174d"/>
  <rect x="24" y="14" width="1" height="5" fill="#f9a8d4"/>
  <rect x="4" y="6" width="5" height="2" fill="#fbcfe8"/>
  <rect x="5" y="7" width="1" height="1" fill="#0f172a"/>
  <rect x="7" y="7" width="1" height="1" fill="#0f172a"/>
  <rect x="3" y="8" width="6" height="2" fill="#f472b6"/>
  <rect x="3" y="10" width="1" height="3" fill="#9d174d"/>
  <rect x="8" y="10" width="1" height="3" fill="#9d174d"/>
  <rect x="5" y="11" width="2" height="3" fill="#db2777"/>
  <rect x="9" y="6" width="1" height="4" fill="#f9a8d4"/>
  <rect x="15" y="5" width="5" height="2" fill="#fbcfe8"/>
  <rect x="16" y="6" width="1" height="1" fill="#0f172a"/>
  <rect x="18" y="6" width="1" height="1" fill="#0f172a"/>
  <rect x="14" y="7" width="6" height="2" fill="#f472b6"/>
  <rect x="14" y="9" width="1" height="3" fill="#9d174d"/>
  <rect x="19" y="9" width="1" height="3" fill="#9d174d"/>
  <rect x="16" y="10" width="2" height="3" fill="#9d174d"/>
  <rect x="20" y="5" width="1" height="4" fill="#f9a8d4"/>
  <rect x="24" y="7" width="5" height="2" fill="#fbcfe8"/>
  <rect x="25" y="8" width="1" height="1" fill="#0f172a"/>
  <rect x="27" y="8" width="1" height="1" fill="#0f172a"/>
  <rect x="23" y="9" width="6" height="2" fill="#f472b6"/>
  <rect x="23" y="11" width="1" height="2" fill="#9d174d"/>
  <rect x="28" y="11" width="1" height="2" fill="#9d174d"/>
  <rect x="25" y="11" width="2" height="3" fill="#db2777"/>
  <rect x="29" y="7" width="1" height="4" fill="#f9a8d4"/>
</svg>
