<svg xmlns="http://www.w3.org/2000/svg" viewBox="0 0 12 12" width="12" height="12" shape-rendering="crispEdges">
  <rect width="12" height="12" fill="transparent"/>
  <rect x="2" y="0" width="8" height="3" fill="#1d4ed8"/>
  <rect x="3" y="1" width="6" height="2" fill="#3b82f6"/>
  <rect x="3" y="4" width="6" height="1" fill="#cbd5e1"/>
  <rect x="4" y="2" width="1" height="1" fill="#0f172a"/>
  <rect x="7" y="2" width="1" height="1" fill="#0f172a"/>
  <rect x="5" y="3" width="2" height="1" fill="#475569"/>
  <rect x="4" y="6" width="4" height="3" fill="#cbd5e1"/>
  <rect x="3" y="7" width="1" height="3" fill="#94a3b8"/>
  <rect x="8" y="7" width="1" height="3" fill="#94a3b8"/>
  <rect x="5" y="9" width="2" height="2" fill="#94a3b8"/>
  <rect x="1" y="6" width="2" height="2" fill="#0f172a"/>
  <rect x="1" y="4" width="1" height="2" fill="#facc15"/>
  <rect x="1" y="3" width="1" height="1" fill="#facc15"/>
  <rect x="4" y="0" width="1" height="1" fill="#1e3a8a"/>
  <rect x="7" y="0" width="1" height="1" fill="#1e3a8a"/>
</svg>
