<svg xmlns="http://www.w3.org/2000/svg" viewBox="0 0 32 32" width="32" height="32" shape-rendering="crispEdges">
  <rect width="32" height="32" rx="4" fill="#14532d"/>
  <rect x="2" y="2" width="28" height="28" rx="3" fill="#166534"/>
  <!-- small head -->
  <rect x="12" y="4" width="8" height="5" fill="#86efac"/>
  <rect x="14" y="6" width="2" height="2" fill="#0f172a"/>
  <rect x="18" y="6" width="2" height="2" fill="#0f172a"/>
  <rect x="13" y="8" width="6" height="2" fill="#22c55e"/>
  <!-- wide gut -->
  <rect x="6" y="11" width="20" height="8" fill="#15803d"/>
  <rect x="8" y="13" width="16" height="5" fill="#16a34a"/>
  <rect x="11" y="15" width="10" height="3" fill="#22c55e"/>
  <!-- huge lower body / hips -->
  <rect x="4" y="19" width="24" height="7" fill="#14532d"/>
  <rect x="6" y="21" width="20" height="4" fill="#166534"/>
  <!-- thick legs -->
  <rect x="7" y="25" width="7" height="6" fill="#14532d"/>
  <rect x="18" y="25" width="7" height="6" fill="#14532d"/>
  <rect x="7" y="30" width="7" height="2" fill="#0f172a"/>
  <rect x="18" y="30" width="7" height="2" fill="#0f172a"/>
</svg>
