<svg xmlns="http://www.w3.org/2000/svg" viewBox="0 0 64 64" width="64" height="64">
  <defs>
    <linearGradient id="bg" x1="0%" y1="0%" x2="100%" y2="100%">
      <stop offset="0%" stop-color="#0f172a"/>
      <stop offset="100%" stop-color="#082f49"/>
    </linearGradient>
    <linearGradient id="glass" x1="0%" y1="0%" x2="0%" y2="100%">
      <stop offset="0%" stop-color="#67e8f9" stop-opacity=".9"/>
      <stop offset="55%" stop-color="#22d3ee" stop-opacity=".72"/>
      <stop offset="100%" stop-color="#0891b2" stop-opacity=".95"/>
    </linearGradient>
    <linearGradient id="shine" x1="0%" y1="0%" x2="100%" y2="0%">
      <stop offset="0%" stop-color="#ecfeff" stop-opacity=".56"/>
      <stop offset="100%" stop-color="#ecfeff" stop-opacity="0"/>
    </linearGradient>
  </defs>

  <rect width="64" height="64" rx="8" fill="url(#bg)"/>
  <rect x="5" y="5" width="54" height="54" rx="7" fill="none" stroke="#67e8f9" stroke-opacity=".35"/>

  <g transform="translate(13 8) rotate(-8 19 24)">
    <rect x="4" y="0" width="14" height="6" rx="2" fill="#a16207" stroke="#78350f" stroke-width=".9"/>
    <rect x="5.4" y="5.5" width="11.2" height="39" rx="4.5" fill="url(#glass)" stroke="#67e8f9" stroke-width="1.1"/>
    <rect x="7" y="10" width="3.6" height="30" rx="1.8" fill="url(#shine)"/>
  </g>

  <g transform="translate(31 10) rotate(8 19 24)">
    <rect x="4" y="0" width="14" height="6" rx="2" fill="#a16207" stroke="#78350f" stroke-width=".9"/>
    <rect x="5.4" y="5.5" width="11.2" height="39" rx="4.5" fill="url(#glass)" stroke="#67e8f9" stroke-width="1.1"/>
    <rect x="7" y="10" width="3.6" height="30" rx="1.8" fill="url(#shine)"/>
    <rect x="6.8" y="34" width="8.2" height="10" rx="3.4" fill="#083344" fill-opacity=".55"/>
  </g>

  <circle cx="32" cy="32" r="22" fill="none" stroke="#a5f3fc" stroke-opacity=".35"/>
</svg>
