<svg xmlns="http://www.w3.org/2000/svg" viewBox="0 0 32 32" width="32" height="32" shape-rendering="crispEdges">
  <rect width="32" height="32" rx="4" fill="#14532d"/>
  <rect x="2" y="2" width="28" height="28" rx="3" fill="#166534"/>
  <!-- 3 melee goblins (green), no spears -->
  <g fill="#22c55e">
    <rect x="5" y="10" width="6" height="5"/>
    <rect x="6" y="8" width="4" height="3" fill="#bbf7d0"/>
    <rect x="7" y="9" width="1" height="1" fill="#0f172a"/>
    <rect x="9" y="9" width="1" height="1" fill="#0f172a"/>
    <rect x="5" y="15" width="2" height="4"/>
    <rect x="9" y="15" width="2" height="4"/>
    <rect x="6" y="17" width="4" height="3"/>
  </g>
  <g fill="#16a34a">
    <rect x="13" y="12" width="6" height="5"/>
    <rect x="14" y="10" width="4" height="3" fill="#86efac"/>
    <rect x="15" y="11" width="1" height="1" fill="#0f172a"/>
    <rect x="17" y="11" width="1" height="1" fill="#0f172a"/>
    <rect x="13" y="17" width="2" height="4"/>
    <rect x="17" y="17" width="2" height="4"/>
    <rect x="14" y="19" width="4" height="3"/>
  </g>
  <g fill="#4ade80">
    <rect x="21" y="9" width="6" height="5"/>
    <rect x="22" y="7" width="4" height="3" fill="#dcfce7"/>
    <rect x="23" y="8" width="1" height="1" fill="#0f172a"/>
    <rect x="25" y="8" width="1" height="1" fill="#0f172a"/>
    <rect x="21" y="14" width="2" height="4"/>
    <rect x="25" y="14" width="2" height="4"/>
    <rect x="22" y="16" width="4" height="3"/>
  </g>
</svg>
