<svg xmlns="http://www.w3.org/2000/svg" viewBox="0 0 32 32" width="32" height="32" shape-rendering="crispEdges">
  <rect width="32" height="32" rx="4" fill="#1e1b4b"/>
  <rect x="2" y="2" width="28" height="28" rx="3" fill="#312e81"/>
  <path d="M16 5 L17 10 L22 8 L18 13 L26 14 L18 14 L21 21 L16 16 L11 21 L14 14 L6 14 L10 13 L6 8 L11 10 L12 5 L16 5" fill="#fbbf24" opacity=".9"/>
  <rect x="6" y="20" width="6" height="8" fill="#0f172a" opacity=".85"/>
  <rect x="18" y="20" width="6" height="8" fill="#0f172a" opacity=".85"/>
  <rect x="4" y="10" width="4" height="5" fill="#fbbf24" opacity=".7"/>
  <rect x="23" y="9" width="4" height="5" fill="#fbbf24" opacity=".7"/>
  <rect x="24" y="18" width="5" height="6" fill="#ca8a04" opacity=".65"/>
</svg>
