<svg xmlns="http://www.w3.org/2000/svg" viewBox="0 0 32 32" width="32" height="32" shape-rendering="crispEdges">
  <rect width="32" height="32" rx="4" fill="#1e1b4b"/>
  <rect x="2" y="2" width="28" height="28" rx="3" fill="#312e81"/>
  <!-- 9 small skeletons behind (3 rows), packed in top area -->
  <g fill="#94a3b8">
    <g transform="translate(5,2)">
      <rect width="4" height="2"/>
      <rect x="1" y="2" width="1" height="1" fill="#0f172a"/>
      <rect x="2" y="2" width="1" height="1" fill="#0f172a"/>
      <rect y="3" width="4" height="2" fill="#cbd5e1"/>
      <rect y="5" width="1" height="2"/>
      <rect x="3" y="5" width="1" height="2"/>
      <rect x="1" y="6" width="2" height="1"/>
    </g>
    <g transform="translate(14,2)">
      <rect width="4" height="2"/>
      <rect x="1" y="2" width="1" height="1" fill="#0f172a"/>
      <rect x="2" y="2" width="1" height="1" fill="#0f172a"/>
      <rect y="3" width="4" height="2" fill="#cbd5e1"/>
      <rect y="5" width="1" height="2"/>
      <rect x="3" y="5" width="1" height="2"/>
      <rect x="1" y="6" width="2" height="1"/>
    </g>
    <g transform="translate(23,2)">
      <rect width="4" height="2"/>
      <rect x="1" y="2" width="1" height="1" fill="#0f172a"/>
      <rect x="2" y="2" width="1" height="1" fill="#0f172a"/>
      <rect y="3" width="4" height="2" fill="#cbd5e1"/>
      <rect y="5" width="1" height="2"/>
      <rect x="3" y="5" width="1" height="2"/>
      <rect x="1" y="6" width="2" height="1"/>
    </g>
    <g transform="translate(5,8)">
      <rect width="4" height="2"/>
      <rect x="1" y="2" width="1" height="1" fill="#0f172a"/>
      <rect x="2" y="2" width="1" height="1" fill="#0f172a"/>
      <rect y="3" width="4" height="2" fill="#cbd5e1"/>
      <rect y="5" width="1" height="2"/>
      <rect x="3" y="5" width="1" height="2"/>
      <rect x="1" y="6" width="2" height="1"/>
    </g>
    <g transform="translate(14,8)">
      <rect width="4" height="2"/>
      <rect x="1" y="2" width="1" height="1" fill="#0f172a"/>
      <rect x="2" y="2" width="1" height="1" fill="#0f172a"/>
      <rect y="3" width="4" height="2" fill="#cbd5e1"/>
      <rect y="5" width="1" height="2"/>
      <rect x="3" y="5" width="1" height="2"/>
      <rect x="1" y="6" width="2" height="1"/>
    </g>
    <g transform="translate(23,8)">
      <rect width="4" height="2"/>
      <rect x="1" y="2" width="1" height="1" fill="#0f172a"/>
      <rect x="2" y="2" width="1" height="1" fill="#0f172a"/>
      <rect y="3" width="4" height="2" fill="#cbd5e1"/>
      <rect y="5" width="1" height="2"/>
      <rect x="3" y="5" width="1" height="2"/>
      <rect x="1" y="6" width="2" height="1"/>
    </g>
    <g transform="translate(5,14)">
      <rect width="4" height="2"/>
      <rect x="1" y="2" width="1" height="1" fill="#0f172a"/>
      <rect x="2" y="2" width="1" height="1" fill="#0f172a"/>
      <rect y="3" width="4" height="2" fill="#cbd5e1"/>
      <rect y="5" width="1" height="2"/>
      <rect x="3" y="5" width="1" height="2"/>
      <rect x="1" y="6" width="2" height="1"/>
    </g>
    <g transform="translate(14,14)">
      <rect width="4" height="2"/>
      <rect x="1" y="2" width="1" height="1" fill="#0f172a"/>
      <rect x="2" y="2" width="1" height="1" fill="#0f172a"/>
      <rect y="3" width="4" height="2" fill="#cbd5e1"/>
      <rect y="5" width="1" height="2"/>
      <rect x="3" y="5" width="1" height="2"/>
      <rect x="1" y="6" width="2" height="1"/>
    </g>
    <g transform="translate(23,14)">
      <rect width="4" height="2"/>
      <rect x="1" y="2" width="1" height="1" fill="#0f172a"/>
      <rect x="2" y="2" width="1" height="1" fill="#0f172a"/>
      <rect y="3" width="4" height="2" fill="#cbd5e1"/>
      <rect y="5" width="1" height="2"/>
      <rect x="3" y="5" width="1" height="2"/>
      <rect x="1" y="6" width="2" height="1"/>
    </g>
  </g>
  <!-- One large skeleton in front (drawn last) -->
  <g fill="#f1f5f9">
    <rect x="9" y="22" width="14" height="3"/>
    <rect x="12" y="24" width="1" height="1" fill="#0f172a"/>
    <rect x="17" y="24" width="1" height="1" fill="#0f172a"/>
    <rect x="10" y="25" width="12" height="4" fill="#e2e8f0"/>
    <rect x="11" y="26" width="10" height="2" fill="#cbd5e1"/>
    <rect x="7" y="29" width="2" height="2"/>
    <rect x="23" y="29" width="2" height="2"/>
    <rect x="11" y="29" width="10" height="2"/>
  </g>
</svg>
