<svg xmlns="http://www.w3.org/2000/svg" viewBox="0 0 16 16" width="16" height="16" shape-rendering="crispEdges">
  <rect width="16" height="16" fill="transparent"/>
  <rect x="4" y="2" width="8" height="6" fill="#0c4a6e"/>
  <rect x="5" y="3" width="6" height="4" fill="#1e3a5c"/>
  <rect x="6" y="4" width="4" height="2" fill="#2563eb"/>
  <rect x="7" y="5" width="2" height="1" fill="#0c4a6e"/>
  <rect x="9" y="5" width="1" height="1" fill="#7dd3fc"/>
  <rect x="6" y="3" width="4" height="1" fill="#38bdf8"/>
  <rect x="5" y="8" width="6" height="4" fill="#1d4ed8"/>
  <rect x="6" y="9" width="4" height="2" fill="#2563eb"/>
  <rect x="5" y="12" width="2" height="3" fill="#1e40af"/>
  <rect x="10" y="12" width="2" height="3" fill="#1e40af"/>
  <rect x="5" y="14" width="2" height="2" fill="#172554"/>
  <rect x="10" y="14" width="2" height="2" fill="#172554"/>
  <!-- sword trailing -->
  <rect x="11" y="6" width="1" height="5" fill="#94a3b8"/>
  <rect x="12" y="3" width="2" height="4" fill="#cbd5e1"/>
  <rect x="13" y="2" width="2" height="2" fill="#f8fafc"/>
</svg>
