<svg xmlns="http://www.w3.org/2000/svg" viewBox="0 0 16 16" width="16" height="16" shape-rendering="crispEdges">
  <rect width="16" height="16" fill="transparent"/>
  <!-- helmet -->
  <rect x="4" y="1" width="8" height="6" fill="#0c4a6e"/>
  <rect x="5" y="2" width="6" height="4" fill="#1e3a5c"/>
  <rect x="6" y="3" width="4" height="2" fill="#2563eb"/>
  <rect x="7" y="4" width="2" height="1" fill="#0c4a6e"/>
  <rect x="9" y="4" width="1" height="1" fill="#7dd3fc"/>
  <rect x="6" y="2" width="4" height="1" fill="#38bdf8"/>
  <!-- torso -->
  <rect x="5" y="7" width="6" height="4" fill="#1d4ed8"/>
  <rect x="6" y="8" width="4" height="2" fill="#2563eb"/>
  <rect x="7" y="9" width="2" height="1" fill="#38bdf8"/>
  <!-- legs: left forward -->
  <rect x="5" y="11" width="2" height="3" fill="#1e40af"/>
  <rect x="9" y="11" width="2" height="3" fill="#1e40af"/>
  <rect x="5" y="13" width="2" height="2" fill="#172554"/>
  <rect x="9" y="13" width="2" height="2" fill="#172554"/>
  <!-- sword arm R -->
  <rect x="11" y="5" width="1" height="6" fill="#94a3b8"/>
  <rect x="12" y="2" width="2" height="4" fill="#cbd5e1"/>
  <rect x="13" y="1" width="2" height="2" fill="#f8fafc"/>
  <rect x="14" y="0" width="1" height="3" fill="#e2e8f0"/>
</svg>
