<svg xmlns="http://www.w3.org/2000/svg" viewBox="0 0 16 16" width="16" height="16" shape-rendering="crispEdges">
  <rect width="16" height="16" fill="transparent"/>
  <rect x="5" y="0" width="6" height="2" fill="#1e3a8a"/>
  <rect x="4" y="1" width="8" height="1" fill="#1d4ed8"/>
  <rect x="10" y="0" width="2" height="2" fill="#dc2626"/>
  <rect x="6" y="2" width="4" height="1" fill="#93c5fd"/>
  <rect x="6" y="3" width="1" height="1" fill="#fde68a"/>
  <rect x="9" y="3" width="1" height="1" fill="#fde68a"/>
  <rect x="6" y="4" width="4" height="2" fill="#fecdd3"/>
  <rect x="7" y="5" width="2" height="1" fill="#0f172a"/>
  <rect x="5" y="6" width="6" height="4" fill="#2563eb"/>
  <rect x="6" y="7" width="4" height="2" fill="#3b82f6"/>
  <rect x="7" y="8" width="2" height="1" fill="#60a5fa"/>
  <rect x="11" y="5" width="1" height="5" fill="#78350f"/>
  <rect x="12" y="3" width="3" height="3" fill="#64748b"/>
  <rect x="13" y="2" width="2" height="1" fill="#475569"/>
  <rect x="6" y="10" width="2" height="4" fill="#1e293b"/>
  <rect x="9" y="10" width="2" height="4" fill="#1e293b"/>
  <rect x="6" y="13" width="2" height="2" fill="#0f172a"/>
  <rect x="9" y="13" width="2" height="2" fill="#0f172a"/>
</svg>
